<?xml version="1.0" encoding="utf-8"?>
<!-- Generator: Adobe Illustrator 26.0.1, SVG Export Plug-In . SVG Version: 6.00 Build 0)  -->
<svg version="1.1" id="Capa_1" xmlns="http://www.w3.org/2000/svg" xmlns:xlink="http://www.w3.org/1999/xlink" x="0px" y="0px"
	 viewBox="0 0 297.5 297.5" style="enable-background:new 0 0 297.5 297.5;" xml:space="preserve">
<style type="text/css">
	.st0{fill:#E78A4E;}
	.st1{fill:#282828;}
</style>
<g id="Capa_2_00000090274381191805147980000004846279705039431358_">
	<g id="ball_2">
		<circle class="st0" cx="148.8" cy="148.8" r="125"/>
		<polygon class="st1" points="131.9,150.2 145.4,163.5 164,160 155.5,177 164.7,193.6 145.9,190.7 132.9,204.6 129.8,185.8 
			112.6,177.8 129.5,169 		"/>
		<polygon class="st1" points="151.2,88 164.7,101.4 183.4,97.8 174.9,114.8 184,131.4 165.2,128.6 152.2,142.4 149.1,123.7 
			132,115.6 148.8,106.9 		"/>
		<path class="st1" d="M122.7,259.1c-16.9-3.7-32.9-11.8-46.4-22.5C41,209.1,26.9,159,39.1,116.4C49,81.9,76.2,53,109.9,40.7
			c4.2-1.5,8.6-2.7,13-3.5c4.4-0.8,8.8-1.1,13.2-1.5c17.4-1.4,35.6,0.2,51.9,6.9s30.2,17.2,42.8,29c-8.6-6.3-17.5-12.2-27-17.1
			c-20-10.3-38.4-13.3-60.7-11.5c-4.9,0.5-10.7,1.1-15.6,1.9c-13.1,2.3-25.2,8.3-36.1,15.9c-27,18.8-45.4,49.5-47,82.5
			c-1.2,22.6,3.8,45.9,15.5,65.4C73.8,232.2,97.1,249.8,122.7,259.1L122.7,259.1z"/>
	</g>
</g>
</svg>
