<?xml version="1.0" encoding="utf-8"?>
<!-- Generator: Adobe Illustrator 26.0.1, SVG Export Plug-In . SVG Version: 6.00 Build 0)  -->
<svg version="1.1" id="Capa_1" xmlns="http://www.w3.org/2000/svg" xmlns:xlink="http://www.w3.org/1999/xlink" x="0px" y="0px"
	 viewBox="0 0 297.5 297.5" style="enable-background:new 0 0 297.5 297.5;" xml:space="preserve">
<style type="text/css">
	.st0{fill:#E78A4E;}
	.st1{fill:#282828;}
</style>
<g id="Capa_2_00000121967686303157179870000004486708340059038100_">
	<g id="ball_5">
		<circle class="st0" cx="148.8" cy="148.8" r="125"/>
		<polygon class="st1" points="162.9,184.7 176.4,198 195.1,194.3 186.6,211.3 195.8,228 177.1,225.2 164.1,239.1 161,220.3 
			143.7,212.3 160.6,203.5 		"/>
		<polygon class="st1" points="128,81.5 141.8,94.5 160.4,90.6 152.2,107.7 161.7,124.2 142.9,121.7 130.1,135.8 126.7,117.1 
			109.3,109.4 126,100.3 		"/>
		<polygon class="st1" points="144,133.6 157.8,146.6 176.3,142.7 168.2,159.8 177.6,176.3 158.8,173.8 146.1,187.9 142.6,169.2 
			125.3,161.5 142,152.4 		"/>
		<polygon class="st1" points="194.4,104.2 208.2,117.2 226.8,113.3 218.6,130.4 228.1,146.9 209.2,144.4 196.5,158.5 193.1,139.8 
			175.7,132.1 192.4,123 		"/>
		<polygon class="st1" points="90,155.2 103.4,168.6 122.1,165.2 113.5,182.1 122.5,198.8 103.8,195.8 90.7,209.6 87.7,190.8 
			70.6,182.6 87.5,174 		"/>
		<path class="st1" d="M122.7,259.1c-16.9-3.7-32.9-11.8-46.4-22.5C41,209.1,26.9,159,39.1,116.4C49,81.9,76.2,53,109.9,40.7
			c4.2-1.5,8.6-2.7,13-3.5c4.4-0.8,8.8-1.1,13.2-1.5c17.4-1.4,35.6,0.2,51.9,6.9s30.2,17.2,42.8,29c-8.6-6.3-17.5-12.2-27-17.1
			c-20-10.3-38.4-13.3-60.7-11.5c-4.9,0.5-10.7,1.1-15.6,1.9c-13.1,2.3-25.2,8.3-36.1,15.9c-27,18.8-45.4,49.5-47,82.5
			c-1.2,22.6,3.8,45.9,15.5,65.4C73.8,232.2,97.1,249.8,122.7,259.1L122.7,259.1z"/>
	</g>
</g>
</svg>
