<?xml version="1.0" encoding="utf-8"?>
<!-- Generator: Adobe Illustrator 26.0.1, SVG Export Plug-In . SVG Version: 6.00 Build 0)  -->
<svg version="1.1" id="Capa_1" xmlns="http://www.w3.org/2000/svg" xmlns:xlink="http://www.w3.org/1999/xlink" x="0px" y="0px"
	 viewBox="0 0 297.5 297.5" style="enable-background:new 0 0 297.5 297.5;" xml:space="preserve">
<style type="text/css">
	.st0{fill:#E78A4E;}
	.st1{fill:#282828;}
</style>
<g id="Capa_2_00000119802866375273604330000010199174090978772890_">
	<g id="ball_3">
		<circle class="st0" cx="148.8" cy="148.8" r="125"/>
		<polygon class="st1" points="165.1,155.4 177.4,169.9 196.3,167.9 186.4,184.1 194.1,201.5 175.6,197 161.5,209.7 160,190.8 
			143.6,181.3 161.1,174 		"/>
		<polygon class="st1" points="162.8,88.4 175.5,102.5 194.3,100.1 184.8,116.5 192.9,133.7 174.3,129.7 160.5,142.7 158.6,123.8 
			141.9,114.7 159.3,107 		"/>
		<polygon class="st1" points="106.5,127 119.2,141.2 138,138.8 128.5,155.2 136.6,172.4 118,168.4 104.2,181.4 102.3,162.5 
			85.6,153.3 103,145.7 		"/>
		<path class="st1" d="M122.7,259.1c-16.9-3.7-32.9-11.8-46.4-22.5C41,209.1,26.9,159,39.1,116.4C49,81.9,76.2,53,109.9,40.7
			c4.2-1.5,8.6-2.7,13-3.5c4.4-0.8,8.8-1.1,13.2-1.5c17.4-1.4,35.6,0.2,51.9,6.9s30.2,17.2,42.8,29c-8.6-6.3-17.5-12.2-27-17.1
			c-20-10.3-38.4-13.3-60.7-11.5c-4.9,0.5-10.7,1.1-15.6,1.9c-13.1,2.3-25.2,8.3-36.1,15.9c-27,18.8-45.4,49.5-47,82.5
			c-1.2,22.6,3.8,45.9,15.5,65.4C73.8,232.2,97.1,249.8,122.7,259.1L122.7,259.1z"/>
	</g>
</g>
</svg>
