<?xml version="1.0" encoding="utf-8"?>
<!-- Generator: Adobe Illustrator 26.0.1, SVG Export Plug-In . SVG Version: 6.00 Build 0)  -->
<svg version="1.1" id="Capa_1" xmlns="http://www.w3.org/2000/svg" xmlns:xlink="http://www.w3.org/1999/xlink" x="0px" y="0px"
	 viewBox="0 0 297.5 297.5" style="enable-background:new 0 0 297.5 297.5;" xml:space="preserve">
<style type="text/css">
	.st0{fill:#E78A4E;}
	.st1{fill:#282828;}
</style>
<g id="Capa_2_00000129905620515120991780000007485016528493169304_">
	<g id="ball_7">
		<circle class="st0" cx="148.8" cy="148.8" r="125"/>
		<polygon class="st1" points="174.6,176.3 188.2,189.6 206.8,185.9 198.4,202.9 207.6,219.5 188.8,216.8 175.9,230.7 172.7,211.9 
			155.5,203.9 172.3,195.1 		"/>
		<polygon class="st1" points="95.6,127.5 109.2,140.8 127.8,137.2 119.4,154.2 128.6,170.8 109.8,168 96.9,181.9 93.7,163.2 
			76.5,155.2 93.3,146.4 		"/>
		<polygon class="st1" points="125.5,79.8 139.3,92.9 157.9,88.9 149.7,106.1 159.2,122.5 140.3,120 127.6,134.1 124.2,115.5 
			106.8,107.7 123.5,98.7 		"/>
		<polygon class="st1" points="180.1,77.3 193.9,90.3 212.5,86.4 204.3,103.5 213.8,120 195,117.5 182.2,131.6 178.8,112.9 
			161.4,105.2 178.1,96.1 		"/>
		<polygon class="st1" points="146.5,127.7 160.3,140.8 178.9,136.8 170.7,154 180.2,170.4 161.3,167.9 148.6,182 145.2,163.4 
			127.8,155.6 144.5,146.6 		"/>
		<polygon class="st1" points="202,124.3 215.8,137.4 234.3,133.5 226.2,150.6 235.6,167.1 216.8,164.6 204.1,178.7 200.6,160 
			183.3,152.3 200,143.2 		"/>
		<polygon class="st1" points="118.6,177.9 132,191.3 150.7,187.9 142.1,204.8 151.1,221.5 132.3,218.5 119.2,232.3 116.3,213.5 
			99.2,205.3 116.1,196.7 		"/>
		<path class="st1" d="M122.7,259.1c-16.9-3.7-32.9-11.8-46.4-22.5C41,209.1,26.9,159,39.1,116.4C49,81.9,76.2,53,109.9,40.7
			c4.2-1.5,8.6-2.7,13-3.5c4.4-0.8,8.8-1.1,13.2-1.5c17.4-1.4,35.6,0.2,51.9,6.9s30.2,17.2,42.8,29c-8.6-6.3-17.5-12.2-27-17.1
			c-20-10.3-38.4-13.3-60.7-11.5c-4.9,0.5-10.7,1.1-15.6,1.9c-13.1,2.3-25.2,8.3-36.1,15.9c-27,18.8-45.4,49.5-47,82.5
			c-1.2,22.6,3.8,45.9,15.5,65.4C73.8,232.2,97.1,249.8,122.7,259.1L122.7,259.1z"/>
	</g>
</g>
</svg>
