<?xml version="1.0" encoding="utf-8"?>
<!-- Generator: Adobe Illustrator 26.0.1, SVG Export Plug-In . SVG Version: 6.00 Build 0)  -->
<svg version="1.1" id="Capa_1" xmlns="http://www.w3.org/2000/svg" xmlns:xlink="http://www.w3.org/1999/xlink" x="0px" y="0px"
	 viewBox="0 0 297.5 297.5" style="enable-background:new 0 0 297.5 297.5;" xml:space="preserve">
<style type="text/css">
	.st0{fill:#E78A4E;}
	.st1{fill:#282828;}
</style>
<g id="Capa_2_00000143593005875620065280000010555281601817377429_">
	<g id="ball_4">
		<circle class="st0" cx="148.8" cy="148.8" r="125"/>
		<polygon class="st1" points="158.7,170.4 172.2,183.7 190.9,180.1 182.4,197.1 191.6,213.7 172.9,210.9 159.9,224.8 156.8,206.1 
			139.5,198 156.4,189.2 		"/>
		<polygon class="st1" points="132.2,84 146,97.1 164.6,93.1 156.4,110.3 165.9,126.7 147.1,124.2 134.3,138.3 130.9,119.7 
			113.5,111.9 130.2,102.9 		"/>
		<polygon class="st1" points="184.3,112.6 198.1,125.6 216.7,121.7 208.5,138.8 218,155.3 199.2,152.8 186.4,166.9 183,148.2 
			165.6,140.5 182.3,131.4 		"/>
		<polygon class="st1" points="109.4,140.1 122.8,153.5 141.5,150.1 132.8,167 141.8,183.7 123.1,180.7 110,194.4 107,175.7 
			89.9,167.5 106.9,158.9 		"/>
		<path class="st1" d="M122.7,259.1c-16.9-3.7-32.9-11.8-46.4-22.5C41,209.1,26.9,159,39.1,116.4C49,81.9,76.2,53,109.9,40.7
			c4.2-1.5,8.6-2.7,13-3.5c4.4-0.8,8.8-1.1,13.2-1.5c17.4-1.4,35.6,0.2,51.9,6.9s30.2,17.2,42.8,29c-8.6-6.3-17.5-12.2-27-17.1
			c-20-10.3-38.4-13.3-60.7-11.5c-4.9,0.5-10.7,1.1-15.6,1.9c-13.1,2.3-25.2,8.3-36.1,15.9c-27,18.8-45.4,49.5-47,82.5
			c-1.2,22.6,3.8,45.9,15.5,65.4C73.8,232.2,97.1,249.8,122.7,259.1L122.7,259.1z"/>
	</g>
</g>
</svg>
