<?xml version="1.0" encoding="utf-8"?>
<!-- Generator: Adobe Illustrator 26.0.1, SVG Export Plug-In . SVG Version: 6.00 Build 0)  -->
<svg version="1.1" id="Capa_1" xmlns="http://www.w3.org/2000/svg" xmlns:xlink="http://www.w3.org/1999/xlink" x="0px" y="0px"
	 viewBox="0 0 297.5 297.5" style="enable-background:new 0 0 297.5 297.5;" xml:space="preserve">
<style type="text/css">
	.st0{fill:#E78A4E;}
	.st1{fill:#282828;}
</style>
<g id="Capa_2_00000142173048344620532730000008569618168296922522_">
	<g id="ball_6">
		<circle class="st0" cx="148.8" cy="148.8" r="125"/>
		<polygon class="st1" points="157.8,182.2 171.4,195.5 190,191.8 181.6,208.8 190.8,225.4 172,222.6 159.1,236.5 155.9,217.8 
			138.7,209.8 155.5,201 		"/>
		<polygon class="st1" points="112.1,84.8 125.8,97.9 144.4,94 136.2,111.1 145.7,127.6 126.9,125.1 114.2,139.2 110.7,120.5 
			93.4,112.8 110.1,103.7 		"/>
		<polygon class="st1" points="170.9,72.2 184.7,85.3 203.2,81.4 195.1,98.5 204.5,115 185.7,112.5 173,126.6 169.5,107.9 
			152.2,100.2 168.9,91.1 		"/>
		<polygon class="st1" points="141.5,133.6 155.2,146.6 173.8,142.7 165.6,159.8 175.1,176.3 156.3,173.8 143.6,187.9 140.1,169.2 
			122.8,161.5 139.5,152.4 		"/>
		<polygon class="st1" points="199.5,126.8 213.2,139.9 231.8,136 223.6,153.1 233.1,169.6 214.3,167.1 201.6,181.2 198.1,162.5 
			180.8,154.8 197.5,145.7 		"/>
		<polygon class="st1" points="90,155.2 103.4,168.6 122.1,165.2 113.5,182.1 122.5,198.8 103.8,195.8 90.7,209.6 87.7,190.8 
			70.6,182.6 87.5,174 		"/>
		<path class="st1" d="M122.7,259.1c-16.9-3.7-32.9-11.8-46.4-22.5C41,209.1,26.9,159,39.1,116.4C49,81.9,76.2,53,109.9,40.7
			c4.2-1.5,8.6-2.7,13-3.5c4.4-0.8,8.8-1.1,13.2-1.5c17.4-1.4,35.6,0.2,51.9,6.9s30.2,17.2,42.8,29c-8.6-6.3-17.5-12.2-27-17.1
			c-20-10.3-38.4-13.3-60.7-11.5c-4.9,0.5-10.7,1.1-15.6,1.9c-13.1,2.3-25.2,8.3-36.1,15.9c-27,18.8-45.4,49.5-47,82.5
			c-1.2,22.6,3.8,45.9,15.5,65.4C73.8,232.2,97.1,249.8,122.7,259.1L122.7,259.1z"/>
	</g>
</g>
</svg>
