<svg xmlns="http://www.w3.org/2000/svg" viewBox="0 0 450.59 732.05"><defs><style>.cls-1{fill:none;}.cls-1,.cls-2{fill-rule:evenodd;}</style></defs><g id="Capa_2" data-name="Capa 2"><g id="Capa_1-2" data-name="Capa 1"><path class="cls-1" d="M406.81,354.75l-1.5-18h-.75l-.75-7.5h-.75v-3h-.75v-3h-.75v-3h-.75V318h-.75v-3h-.75v-2.25h-.75V310.5h-.75v-2.25h-.75v-1.5h-.75l-.75-4.5h-.75l-.75-3h-.75V297h-.75l-.75-3h-.75v-1.5h-.75v-2.25h-.75l-1.5-4.5h-.75l-.75-3-1.5-.75-1.5-4.5-1.5-.75-1.5-4.5h-.75l-.75-2.25-1.5-.75v-1.5h-.75l-.75-2.25-1.5-.75v-1.5l-2.25-1.5v-1.5l-2.25-1.5v-1.5l-3-2.25v-1.5l-3.75-3V249l-4.5-3.75-12-12.75h-1.5l-3-3.75h-1.5l-.75-1.5h-.75l-.75-1.5h-1.5l-1.5-2.25h-1.5l-1.5-2.25h-1.5l-1.5-2.25h-1.5l-.75-1.5-2.25-.75V216l-3-.75-.75-1.5-2.25-.75v-.75l-4.5-1.5-.75-1.5h-1.5v-.75h-1.5v-.75h-1.5V207h-1.5v-.75h-1.5v-.75h-1.5v-.75l-4.5-1.5v-.75h-2.25v-.75l-3-.75v-.75l-4.5-.75v-.75h-1.5V198l-4.5-.75v-.75h-2.25v-.75h-2.25V195h-2.25v-.75l-5.25-.75v-.75l-6.75-.75v-.75h-3.75v-.75h-2.25v-.75h-4.5V189h-5.25c-11.21-3.23-28.38-1.4-42-1.5l-23.25,3.75V192l-6,.75v.75l-6,.75V195h-2.25v.75h-2.25v.75h-2.25v.75l-4.5.75v.75h-1.5v.75h-2.25v.75h-1.5V201h-2.25v.75l-3,.75v.75h-1.5V204h-2.25l-22.5,12.75-.75,1.5h-1.5V219l-2.25.75-.75,1.5h-1.5l-.75,1.5-2.25.75-2.25,3c-26,18.68-44.16,44.69-57.75,75.75l-.75,4.5h-.75v1.5h-.75v2.25h-.75v2.25h-.75V315h-.75l-.75,5.25h-.75l-.75,6h-.75V330h-.75v3h-.75v4.5h-.75V342h-.75l-.75,15.75h-.75c-1,3.7,0,19,.75,21.75v9.75h.75V396h.75v5.25h.75V405h.75v3.75h.75v3.75h.75v3h.75v2.25h.75v3h.75V423h.75v2.25h.75v2.25h.75v2.25h.75l.75,4.5h.75v1.5h.75V438h.75l.75,3h.75v2.25h.75l1.5,4.5h.75v1.5h.75v1.5h.75l1.5,4.5,1.5.75.75,3,1.5.75.75,3h.75l.75,2.25,1.5.75v1.5l1.5.75v1.5l1.5.75v1.5l1.5.75.75,2.25,2.25,1.5v1.5l1.5.75v.75l1.5.75v1.5l3.75,3V486l9.75,9,8.25,9h1.5l3.75,4.5h1.5l2.25,3h1.5l1.5,2.25,2.25.75.75,1.5h1.5l.75,1.5,2.25.75V519h1.5l1.5,2.25,3,.75.75,1.5,3,.75.75,1.5h1.5v.75h1.5v.75h1.5V528h1.5v.75h1.5v.75h1.5v.75h1.5V531h1.5v.75h1.5v.75l4.5,1.5v.75h2.25v.75h1.5v.75h2.25V537h1.5v.75l4.5.75v.75h1.5V540l7.5,1.5v.75h2.25V543l8.25,1.5v.75h3.75V546l8.25.75v.75l13.5,1.5h6.75v.75c3.5,1,17,0,19.5-.75h9.75v-.75h6v-.75h4.5v-.75h4.5l30-8.25v-.75h1.5V537h2.25v-.75h1.5v-.75h2.25v-.75l3-.75v-.75h2.25v-.75l4.5-1.5v-.75h1.5v-.75l3-.75.75-1.5h1.5v-.75h1.5v-.75h1.5V525h1.5l.75-1.5,3-.75V522l2.25-.75.75-1.5h1.5V519l2.25-.75.75-1.5h1.5l1.5-2.25h1.5l1.5-2.25h1.5l2.25-3h1.5l3-3.75h1.5l6.75-7.5,11.25-10.5V486l4.5-3.75v-1.5l3-2.25V477l2.25-1.5V474l2.25-1.5V471l1.5-.75v-1.5l2.25-1.5v-1.5l1.5-.75.75-3,1.5-.75.75-3,1.5-.75V456h.75v-1.5h.75V453h.75v-1.5l1.5-.75v-1.5h.75l.75-3h.75V444h.75v-1.5h.75l.75-3h.75v-2.25h.75v-1.5h.75V433.5h.75V432h.75l.75-4.5h.75v-2.25h.75V423h.75v-2.25h.75v-3h.75v-3h.75v-3h.75v-3h.75V405h.75v-3.75h.75V396h.75v-5.25h.75V382.5h.75v-8.25C407.56,368,408.21,359.74,406.81,354.75Z"/><path class="cls-1" d="M406.81,354.75l-1.5-18h-.75l-.75-7.5h-.75v-3h-.75v-3h-.75v-3h-.75V318h-.75v-3h-.75v-2.25h-.75V310.5h-.75v-2.25h-.75v-1.5h-.75l-.75-4.5h-.75l-.75-3h-.75V297h-.75l-.75-3h-.75v-1.5h-.75v-2.25h-.75l-1.5-4.5h-.75l-.75-3-1.5-.75-1.5-4.5-1.5-.75-1.5-4.5h-.75l-.75-2.25-1.5-.75v-1.5h-.75l-.75-2.25-1.5-.75v-1.5l-2.25-1.5v-1.5l-2.25-1.5v-1.5l-3-2.25v-1.5l-3.75-3V249l-4.5-3.75-12-12.75h-1.5l-3-3.75h-1.5l-.75-1.5h-.75l-.75-1.5h-1.5l-1.5-2.25h-1.5l-1.5-2.25h-1.5l-1.5-2.25h-1.5l-.75-1.5-2.25-.75V216l-3-.75-.75-1.5-2.25-.75v-.75l-4.5-1.5-.75-1.5h-1.5v-.75h-1.5v-.75h-1.5V207h-1.5v-.75h-1.5v-.75h-1.5v-.75l-4.5-1.5v-.75h-2.25v-.75l-3-.75v-.75l-4.5-.75v-.75h-1.5V198l-4.5-.75v-.75h-2.25v-.75h-2.25V195h-2.25v-.75l-5.25-.75v-.75l-6.75-.75v-.75h-3.75v-.75h-2.25v-.75h-4.5V189h-5.25c-11.21-3.23-28.38-1.4-42-1.5l-23.25,3.75V192l-6,.75v.75l-6,.75V195h-2.25v.75h-2.25v.75h-2.25v.75l-4.5.75v.75h-1.5v.75h-2.25v.75h-1.5V201h-2.25v.75l-3,.75v.75h-1.5V204h-2.25l-22.5,12.75-.75,1.5h-1.5V219l-2.25.75-.75,1.5h-1.5l-.75,1.5-2.25.75-2.25,3c-26,18.68-44.16,44.69-57.75,75.75l-.75,4.5h-.75v1.5h-.75v2.25h-.75v2.25h-.75V315h-.75l-.75,5.25h-.75l-.75,6h-.75V330h-.75v3h-.75v4.5h-.75V342h-.75l-.75,15.75h-.75c-1,3.7,0,19,.75,21.75v9.75h.75V396h.75v5.25h.75V405h.75v3.75h.75v3.75h.75v3h.75v2.25h.75v3h.75V423h.75v2.25h.75v2.25h.75v2.25h.75l.75,4.5h.75v1.5h.75V438h.75l.75,3h.75v2.25h.75l1.5,4.5h.75v1.5h.75v1.5h.75l1.5,4.5,1.5.75.75,3,1.5.75.75,3h.75l.75,2.25,1.5.75v1.5l1.5.75v1.5l1.5.75v1.5l1.5.75.75,2.25,2.25,1.5v1.5l1.5.75v.75l1.5.75v1.5l3.75,3V486l9.75,9,8.25,9h1.5l3.75,4.5h1.5l2.25,3h1.5l1.5,2.25,2.25.75.75,1.5h1.5l.75,1.5,2.25.75V519h1.5l1.5,2.25,3,.75.75,1.5,3,.75.75,1.5h1.5v.75h1.5v.75h1.5V528h1.5v.75h1.5v.75h1.5v.75h1.5V531h1.5v.75h1.5v.75l4.5,1.5v.75h2.25v.75h1.5v.75h2.25V537h1.5v.75l4.5.75v.75h1.5V540l7.5,1.5v.75h2.25V543l8.25,1.5v.75h3.75V546l8.25.75v.75l13.5,1.5h6.75v.75c3.5,1,17,0,19.5-.75h9.75v-.75h6v-.75h4.5v-.75h4.5l30-8.25v-.75h1.5V537h2.25v-.75h1.5v-.75h2.25v-.75l3-.75v-.75h2.25v-.75l4.5-1.5v-.75h1.5v-.75l3-.75.75-1.5h1.5v-.75h1.5v-.75h1.5V525h1.5l.75-1.5,3-.75V522l2.25-.75.75-1.5h1.5V519l2.25-.75.75-1.5h1.5l1.5-2.25h1.5l1.5-2.25h1.5l2.25-3h1.5l3-3.75h1.5l6.75-7.5,11.25-10.5V486l4.5-3.75v-1.5l3-2.25V477l2.25-1.5V474l2.25-1.5V471l1.5-.75v-1.5l2.25-1.5v-1.5l1.5-.75.75-3,1.5-.75.75-3,1.5-.75V456h.75v-1.5h.75V453h.75v-1.5l1.5-.75v-1.5h.75l.75-3h.75V444h.75v-1.5h.75l.75-3h.75v-2.25h.75v-1.5h.75V433.5h.75V432h.75l.75-4.5h.75v-2.25h.75V423h.75v-2.25h.75v-3h.75v-3h.75v-3h.75v-3h.75V405h.75v-3.75h.75V396h.75v-5.25h.75V382.5h.75v-8.25C407.56,368,408.21,359.74,406.81,354.75Z"/><path class="cls-1" d="M325.06,330v-2.25h-.75l-.75-3h-.75L320.56,318l-1.5-.75-1.5-4.5h-.75l-.75-2.25-1.5-.75v-1.5l-2.25-1.5v-1.5l-1.5-.75-.75-2.25-3.75-3v-1.5l-7.5-6.75-3-3.75h-1.5l-3-3.75h-1.5l-1.5-2.25-2.25-.75-.75-1.5-3-.75-.75-1.5-3-.75-.75-1.5-3-.75V273h-1.5v-.75l-4.5-1.5V270h-2.25v-.75h-1.5v-.75l-18.75-5.25h-5.25c-6.4-1.83-15.11-1.49-23.25-1.5-2.07,1.75-9.58.54-12.75,1.5V264l-7.5.75v.75l-5.25.75V267h-2.25v.75h-2.25v.75h-1.5v.75h-2.25V270l-3,.75v.75l-6.75,2.25-.75,1.5-3,.75-.75,1.5-3,.75-.75,1.5h-1.5l-1.5,2.25h-1.5l-1.5,2.25h-1.5l-2.25,3h-1.5l-6,6.75-3,2.25v1.5l-5.25,4.5v1.5l-2.25,1.5v1.5l-2.25,1.5v1.5l-1.5.75-.75,2.25h-.75l-.75,3-1.5.75-1.5,4.5h-.75v1.5h-.75l-1.5,4.5h-.75l-.75,4.5h-.75v2.25h-.75V336h-.75v2.25h-.75l-.75,6h-.75v4.5h-.75l-.75,13.5h-.75V373.5h.75v9.75h.75v4.5h.75v4.5h.75v3h.75v3h.75v3h.75v2.25h.75v2.25h.75v1.5h.75v2.25h.75l1.5,4.5h.75v1.5h.75V417h.75l1.5,4.5h.75l.75,2.25,1.5.75.75,3,1.5.75.75,2.25,2.25,1.5v1.5l3,2.25v1.5l4.5,3.75,6.75,7.5h1.5l3.75,4.5,2.25.75.75,1.5h1.5l.75,1.5,2.25.75v.75h1.5l.75,1.5,2.25.75v.75l4.5,1.5v.75h1.5v.75h1.5V465l4.5,1.5v.75h2.25c11.4,5,22.31,7.5,39,7.5h14.25V474h5.25v-.75h4.5l22.5-7.5V465h1.5l.75-1.5h2.25l.75-1.5,4.5-1.5.75-1.5h1.5l.75-1.5h1.5l1.5-2.25h1.5l.75-1.5h1.5l3-3.75c13.9-10,25-26.1,32.25-42.75l.75-4.5C334.89,381.52,333.75,349.8,325.06,330Z"/><path class="cls-1" d="M325.06,330v-2.25h-.75l-.75-3h-.75L320.56,318l-1.5-.75-1.5-4.5h-.75l-.75-2.25-1.5-.75v-1.5l-2.25-1.5v-1.5l-1.5-.75-.75-2.25-3.75-3v-1.5l-7.5-6.75-3-3.75h-1.5l-3-3.75h-1.5l-1.5-2.25-2.25-.75-.75-1.5-3-.75-.75-1.5-3-.75-.75-1.5-3-.75V273h-1.5v-.75l-4.5-1.5V270h-2.25v-.75h-1.5v-.75l-18.75-5.25h-5.25c-6.4-1.83-15.11-1.49-23.25-1.5-2.07,1.75-9.58.54-12.75,1.5V264l-7.5.75v.75l-5.25.75V267h-2.25v.75h-2.25v.75h-1.5v.75h-2.25V270l-3,.75v.75l-6.75,2.25-.75,1.5-3,.75-.75,1.5-3,.75-.75,1.5h-1.5l-1.5,2.25h-1.5l-1.5,2.25h-1.5l-2.25,3h-1.5l-6,6.75-3,2.25v1.5l-5.25,4.5v1.5l-2.25,1.5v1.5l-2.25,1.5v1.5l-1.5.75-.75,2.25h-.75l-.75,3-1.5.75-1.5,4.5h-.75v1.5h-.75l-1.5,4.5h-.75l-.75,4.5h-.75v2.25h-.75V336h-.75v2.25h-.75l-.75,6h-.75v4.5h-.75l-.75,13.5h-.75V373.5h.75v9.75h.75v4.5h.75v4.5h.75v3h.75v3h.75v3h.75v2.25h.75v2.25h.75v1.5h.75v2.25h.75l1.5,4.5h.75v1.5h.75V417h.75l1.5,4.5h.75l.75,2.25,1.5.75.75,3,1.5.75.75,2.25,2.25,1.5v1.5l3,2.25v1.5l4.5,3.75,6.75,7.5h1.5l3.75,4.5,2.25.75.75,1.5h1.5l.75,1.5,2.25.75v.75h1.5l.75,1.5,2.25.75v.75l4.5,1.5v.75h1.5v.75h1.5V465l4.5,1.5v.75h2.25c11.4,5,22.31,7.5,39,7.5h14.25V474h5.25v-.75h4.5l22.5-7.5V465h1.5l.75-1.5h2.25l.75-1.5,4.5-1.5.75-1.5h1.5l.75-1.5h1.5l1.5-2.25h1.5l.75-1.5h1.5l3-3.75c13.9-10,25-26.1,32.25-42.75l.75-4.5C334.89,381.52,333.75,349.8,325.06,330Z"/><path class="cls-2" d="M217.06,321.75h17.25v.75h3v.75l5.25.75v.75h1.5v.75h2.25v.75h1.5V327h1.5l.75,1.5h1.5l.75,1.5h1.5l2.25,3h1.5l.75,1.5h.75V336l4.5,3.75v1.5l2.25,1.5.75,3h.75l1.5,4.5h.75l.75,4.5h.75V357h.75l.75,18h-.75v4.5h-.75v2.25h-.75V384h-.75v2.25h-.75l-1.5,4.5h-.75l-.75,3-2.25,1.5v1.5l-3,2.25v1.5l-1.5.75V402l-2.25.75-3,3.75h-1.5l-.75,1.5h-1.5l-.75,1.5-4.5,1.5v.75h-1.5v.75h-2.25v.75h-2.25V414h-3v.75h-3.75v.75c-4.75,1.36-19.68-1-22.5-2.25v-.75h-1.5v-.75h-2.25V411h-1.5v-.75h-1.5l-.75-1.5-3-.75-1.5-2.25h-1.5l-3-3.75-5.25-4.5c-6.14-8.56-12.92-24.54-8.25-39l.75-6c3.74-9.52,12.12-19.62,20.25-24.75l3-.75v-.75l3-.75v-.75h2.25V324h1.5v-.75C212.63,322.34,215.35,323.25,217.06,321.75Z"/><path class="cls-2" d="M445.06,321c.17-9.61-10.16-33.37-12-40.5-1.68.67-.58-3.67-2.25-3V276h-.75v-2.25h-.75c-.81-.16-.7-5.54-2.25-4.5v-1.5h-.75c0-1.42-.68-3.37-2.25-3.75v-1.5h-.75V261h-.75v-1.5c-1.24.43-.52-.95-.75-1.5-1.72,0-2.58-4.05-3-5.25-1.18.59-1.11-1.8-1.5-2.25l-1.5-.75c-.64-.24-.06-3.9-1.5-3l-.75-2.25-1.5-.75v-1.5l-2.25-1.5v-1.5l-1.5-.75V237l-1.5-.75c-.48-1.38-1.38-3.28-3-3.75.65-1.5-2.05-3-3-3.75.82-2.39-3.83-2.86-3-5.25l-6-5.25c1.12-1.7-3.87-4.32-4.5-5.25-1.88.16-8.26-11.66-10.51-9.75L372.31,198c-1.55.84-3.71-2.92-4.5-3.75-1.65.81-2.95-2.17-3.75-3-1.72.78-2.2-1.43-3-2.25-1.18-.48-2.83-.76-3-2.25h-1.5c-.74-.86-.5-1.94-2.25-1.5-1.77-3.65-2.73-1-3.75-3.75-1.12-.61-3.62-.26-3.75-2.25-1.33.11-1.92-.28-2.25-1.5-1.33.11-1.92-.28-2.25-1.5-.44-.26-3.78-.32-3-1.5-1.33.11-1.91-.28-2.25-1.5-2.62.42-.42-1.14-3-.75v-.75h-1.5V171h-1.5v-.75h-1.5v-.75h-1.5v-.75h-1.5V168h-1.5v-.75h-1.5c.65-1.65-3.66-.6-3-2.25h-1.5v-.75h-2.25c.65-1.65-3.66-.6-3-2.25h-2.25v-.75h-1.5v-.75c-.39-.29-4.63-.2-3.75-1.5h-2.25v-.75h-1.5c.81-1.85-5.32-.4-4.5-2.25h-2.25v-.75h-2.25v-.75h-2.25v-.75c-.33-.35-6.26,0-5.25-1.5-.35-.29-7,0-6-1.5L259.81,147,254.56,0H196.81c-1.06,5.42.39,20.47-1.5,24-.27,40.71-3.24,81.83-3.75,123-12.54,1.23-25.41,5.06-34.5,8.25-.53,0-2.82-.48-2.25.75-.53,0-2.82-.48-2.25.75h-2.25c.31,1.23-.87.64-1.5.75.85,1.21-4.13,1.25-4.5,1.5.36,1.5-.9.38-1.5.75.55,1.48-1.73.43-2.25.75.37,1.5-.91.38-1.5.75.55,1.48-1.73.43-2.25.75.66,1.67-3.67.58-3,2.25-.45.52-2.93-.79-2.25.75l-4.5,1.5c.39,1.48-.92.39-1.5.75.39,1.48-.93.39-1.5.75.4,1.48-.93.39-1.5.75.4,1.48-.93.39-1.5.75.4,1.48-.93.39-1.5.75.41,1.48-.93.39-1.5.75.41,1.48-.94.39-1.5.75,0,1.74-4.07,2.56-5.25,3-.12,1.78-2.55,1.88-3.75,2.25-.12,1.78-2.55,1.88-3.75,2.25.55,1.14-1.78,1.13-2.25,1.5l-.75,1.5c-2.46-.5-1.31,2-3.75,1.5-.71,1.43-1.39,2.51-3,2.25-.47,1.25-1,1.75-2.25,1.5-.71,1.39-1.39,2.54-3,2.25a6.79,6.79,0,0,1-4.5,3.75c-.46,1.25-1,1.74-2.25,1.5-1.28.54-2.64,4.85-4.5,3.75-1.56,1.21-4.41,6.29-6.75,6C65.1,211,58,218.82,52.06,224.25c.77,1.61-2.15,3-3,3.75.67,1.62-1.37,2.27-2.25,3,.68,1.62-1.37,2.27-2.25,3,.68,1.61-1.37,2.28-2.25,3,.55,1.52-.59,1.69-1.5,2.25-.34.58-.47,2.74-1.5,2.25.69,1.6-1.37,2.28-2.25,3-.56,1.29-.43,3.61-2.25,3.75l-.75,2.25h-.75V252h-.75v1.5c-1.84,0-2.5,4.09-3,5.25-.94.53-1.9.75-1.5,2.25h-.75v1.5c-1.55-.43.05,1.94-1.5,1.5.32,2.46-1.08.54-.75,3-1.55-.43.05,1.94-1.5,1.5.32,2.46-1.08.54-.75,3-1.55-.43.05,1.94-1.5,1.5v1.5c-1.24-.88-1.83,4.18-2.25,4.5-1.18-.47-.66,1.66-.75,2.25-1.55-.43.05,1.94-1.5,1.5V285h-.75v1.5h-.75v2.25h-.75v1.5h-.75l-.75,4.5c-1.17-.48-.66,1.67-.75,2.25-1.17-.49-.66,1.67-.75,2.25-1.17-.49-.66,1.68-.75,2.25-1.17-.49-.66,1.68-.75,2.25-1.52-1-1.08,5.73-1.5,6-1.17-.5-.66,1.68-.75,2.25-1.57-1.09-1,6.5-1.5,6.75-1.34-.67-.56,2.52-.75,3-1.46-.8-.49,3.34-.75,3.75-1.46-.8-.49,3.34-.75,3.75-1.61-1-.39,4.93-.75,5.25C1,335.93,1.7,352.94,1.05,357c-2.82,14,.84,31.28,1.51,45,.54,3.55,7.33,32.14,7.5,32.25,1.17-1,2,7.18,2.25,7.5,1.35-.5.48,1,.75,1.5,1.24-.81,1.21,4.1,1.5,4.5,1.61-.47-.1,2,1.5,1.5l.75,4.5c1.17-.67,1.18,2.55,1.5,3,1.21-.75,1.2,3.32,1.5,3.75,1.05-.75,1.94,4.09,2.25,4.5,1.33-.54.49,1,.75,1.5,1.33-.55.49,1,.75,1.5,1.33-.55.49,1,.75,1.5,1.33-.55.49,1,.75,1.5,1.33-.56.5,1,.75,1.5,1.6-.48-.1,2,1.5,1.5.1.48-.47,1.86.75,1.5.11.47-.47,1.86.75,1.5v1.5l1.5.75c1,.7.84,5.6,3,5.25V486l1.5.75c-.21,3.19,1.95.72,2.25,5.25,1.3.4,1.69.95,1.5,2.25.94.8,2.83,1.47,2.25,3,1.29.41,1.7.95,1.5,2.25.94.78,2.82,1.48,2.25,3,.93.78,2.82,1.49,2.25,3,.8.9,3.76,2.16,3,3.75.66,1,4.68,2.87,3.75,4.5,3.21,4,24,21.37,21,24-1-.68-.75,1.12-.75,1.5l-1.5.75-.75,3-1.5.75v1.5l-1.5.75-.75,2.25h-.75l-.75,3c-1-.63-1.23,1.83-1.5,2.25l-1.5.75v1.5c-1.55,0-2.05,2.64-2.25,3.75-1.23,0-2.09,2-2.25,3-1.16-.68-1.2,2.56-1.5,3l-1.5.75v1.5l-1.5.75V570c-2.45.33-1.3,4.16-3.75,4.5V576l-1.5.75-.75,3c-2.57.63-.37,2.25-3,3-.2.19-.52,3.08-1.5,2.25l-.75,3h-.75l-.75,2.25-1.5.75v1.5l-1.5.75-.75,3c-1.21-.07-2.11,2-2.25,3-.92-.79-.8,1.21-.75,1.5-2.56.94-2.47,5.5-5.25,6.75l-.75,2.25,2.25,1.5V612c1.58-.86,2.29,1.49,3,2.25,1.59-.83,3,2.19,3.75,3,2.25-.79,2.24,3,4.5,2.25.5.94,1.49,2.75,3,2.25l1.5,2.25c1.56-.87,2.31,1.5,3,2.25,2.47-.55,1.27,2,3.75,1.5l1.5,2.25c1.45-.42,1.78.46,2.25,1.5l2.25.75V633l3,.75.75,1.5,3,.75.75,1.5c1.13.51,5.3,1.27,5.25,3,.32.25,5.42,1.09,4.5,2.25h1.5v.75h1.5c-.78,1.72,5.27,1.29,4.5,3h2.25v.75c.38.23,3.81.34,3,1.5h1.5v.75h2.25c-.66,1.65,3.66.6,3,2.25l3.75.75c-.52,1,1.69.76,2.25.75V654h1.5c-.52,1,1.69.76,2.25.75v.75c8.29,3.11,7.2,1.92,11.25-5.25-.26-1.41.31-1.89,1.5-2.25l.75-3c1.58.39-.09-1.91,1.5-1.5,0-.49-.35-2,.75-1.5v-1.5h.75V639h.75v-1.5c1.65,1.12,6.17-12.26,6.75-12.75,1.62-.36,2-2.37,2.25-3.75,1.17,0,.64-.62.75-1.5,1.58.39-.08-1.91,1.5-1.5.05-.53-.34-2,.75-1.5V615c1.16,0,.64-.62.75-1.5l1.5-.75v-1.5c1.16,0,.65-.61.75-1.5,1.58.4-.08-1.91,1.5-1.5.05-.56-.34-2,.75-1.5v-1.5c1.15,0,.65-.61.75-1.5,1.15,0,.65-.61.75-1.5,1.26-.53,1.67-.78,1.5-2.25,1.06.17.69-.75.75-1.5,1.06.17.69-.75.75-1.5,1.57.4-.08-1.91,1.5-1.5.07-1.23-.36-1.47.75-1.5l1.5-4.5c1.26-.58,1.68-.74,1.5-2.25,1.57.4-.08-1.92,1.5-1.5.06-1.08-.36-1.57.75-1.5.43-1.52,1.09-2.19,1.5-3.75,6.56,1.49,13.28,4.61,20.25,6-.41,19.45-1.68,38.93-1.5,57.75-1.76,8.79-1.14,30.2-1.51,40.5-2-1.25-.08,19.32-.75,19.5-1.82-1-.23,7.93-.74,8.25,1,4.72-3.23,14.48,1.49,14.25v.75c4.91-.53,11,1.18,15.75.75-1.28,1.74,7.37.29,7.5.75-1.27,1.74,7.36.29,7.5.75-1.33,2.27,17.06,0,15.75,2.25,6.22-.13,29.72.7,33-1.5.36-.64,7.78,1.14,6.75-.75.45-.75,7.71,1.2,6.75-.75,6,0,10.6-1.18,17.25-2.25L276.31,586.5l20.25-6c.39,1.17.8,2.77,2.25,3,.35.63-.56,1.84.75,1.5l1.5,4.5c1.21-.36.58.9.75,1.5,1.59-.45-.09,2,1.5,1.5-.32,2.51,1.07.49.75,3,2.46.18,1.23,3.88,3,3.75.32.56-.53,1.9.75,1.5-.32,2.5,1.07.5.75,3,1.2-.39.59.92.75,1.5,1.19-.39.59.92.75,1.5a1.77,1.77,0,0,1,1.5,2.25c1.58-.46-.09,2,1.5,1.5.29.5-.51,1.94.75,1.5.28.5-.51,1.94.75,1.5.28.49-.5,2,.75,1.5.28.48-.5,2,.75,1.5.27.48-.5,2,.75,1.5a1.81,1.81,0,0,0,1.5,2.25c.5.29.2,3.78,1.5,3,.26.44-.49,2,.75,1.5.25.44-.48,2,.75,1.5.25.43-.48,2,.75,1.5-.33,2.46,1.07.54.75,3,2.54.53.61,2.43,2.25,2.25.23.4-.47,2,.75,1.5.23.39-.47,2,.75,1.5.22.39-.46,2,.75,1.5.22.38-.46,2,.75,1.5.22.37-.46,2,.75,1.5a1.82,1.82,0,0,0,1.5,2.25c.21.35-.45,2,.75,1.5.2.35-.45,2,.75,1.5.2.34-.45,2,.75,1.5.2.33-.44,2.06.75,1.5.19.33-.44,2.06.75,1.5,1.09,3.1,2.58,4.92,3.75,7.5.54-.66,3.59-.08,3-1.5h2.25c-.54-1.35,1.71-.52,2.25-.75-.35-1.23.88-.57,1.5-.75-.55-1.35,1.71-.53,2.25-.75-.67-1.17,2.54-1.19,3-1.5-.55-1.35,1.72-.53,2.25-.75-.77-1.23,3.33-1.19,3.75-1.5-.37-1.22.9-.58,1.5-.75-.77-1.23,3.33-1.19,3.75-1.5-.81-1.1,4.13-1.92,4.5-2.25-.39-1.22.91-.58,1.5-.75-.46-1.59,1.95.09,1.5-1.5.53-.34,1.91.54,1.5-.75,2.49.32.5-1.07,3-.75-.46-1.59,1.95.09,1.5-1.5.5-.33,1.93.53,1.5-.75,2.48.32.51-1.07,3-.75.36-2.47,4.13-1.28,4.5-3.75,4.27-.37,2.58-2.57,5.25-2.25a1.76,1.76,0,0,1,2.25-1.5,1.76,1.76,0,0,1,2.25-1.5,1.76,1.76,0,0,1,2.25-1.5c.45-1.11,1.65-2.71,3-2.25,1-2.78,2.09-.14,3.75-3.75a1.83,1.83,0,0,0,2.25-1.5c1.38.53,2.43-1.25,3-2.25,1.53.73,3-2.12,3.75-3,2.39.85,2.85-3.85,5.25-3l2.25-3c1.89,0-.29-1.19-.75-1.5a1.82,1.82,0,0,0-1.5-2.25c-.48-1.28-.48-3.56-2.25-3.75.37-2.63-1.88-.94-2.25-5.25-2.66-.76-.35-2.24-3-3-.36-.62.55-1.85-.75-1.5-.57-.5-.27-2.78-1.5-2.25.4-2.45-1.89-1.36-2.25-4.5-1.17.66-1.19-2.55-1.5-3-1.39-.2-2-1.86-2.25-3-1.17.66-1.19-2.55-1.5-3a1.77,1.77,0,0,1-1.5-2.25,1.76,1.76,0,0,1-1.5-2.25c-1.66-.13-2-2.54-2.25-3.75a1.76,1.76,0,0,1-1.5-2.25,1.76,1.76,0,0,1-1.5-2.25c-1.19.41-.61-.93-.75-1.5a1.76,1.76,0,0,1-1.5-2.25,1.76,1.76,0,0,1-1.5-2.25c-1.65-.12-2-2.55-2.25-3.75-1.37-.16-2-1.88-2.25-3-1.17.67-1.19-2.55-1.5-3-1.58.12-.79-2.71-3-3-.61-2.93-7.36-9.56-4.51-10.5.54-.77,1.61-3,3-2.25.19-1.47,3.52-3.63,4.5-4.5,1.86-2.48,22.74-24.06,21.75-26.25.79-.29,2.94-1.78,2.25-3,.78-.28,2.94-1.78,2.25-3l1.5-.75s.65-3.11,1.5-2.25c-.45-.95.51-2.1,1.5-2.25-.45-.94.51-2.11,1.5-2.25v-1.5l1.5-.75.75-2.25c1,.56.74-1,.75-1.5,1.56.48-.07-2,1.5-1.5v-1.5l1.5-.75V477h.75v-1.5h.75V474h.75v-1.5l1.5-.75c.09,0,.46-4,1.5-3l1.5-4.5c1.22.67.61-1.81.75-2.25,1.65.67.59-3.67,2.25-3v-1.5h.75c0-.22-.43-3.08.75-2.25.18-.13.39-4,1.5-3,.22,0,.2-5.66,1.5-4.5v-1.5c1.35.78,1.14-4.07,1.5-4.5C449.2,416.43,456,357.38,445.06,321Zm-37.5,53.25c.31,4.92-1.09,11.58-.75,16.5-2.06-.9.56,6.15-1.5,5.25v5.25c-1.44-.8-.5,3.33-.75,3.75-1.44-.8-.5,3.33-.75,3.75-1.44-.7-.48,2.54-.75,3-1.9-.69.38,3.69-1.5,3-.74.33,1,3.83-.75,3-.73.32,1,3.84-.75,3-.07.54.51,2.77-.75,2.25v2.25c-1.44-.59-.47,1.75-.75,2.25-1.24-.83-1.23,4.11-1.5,4.5-1.4-.45-.46,1-.75,1.5-1.44-.6-.47,1.76-.75,2.25-1.4-.46-.46,1-.75,1.5-1.43-.6-.47,1.76-.75,2.25-1.18-.67-1.19,2.55-1.5,3-1.39-.47-.46,1-.75,1.5-1.43-.61-.47,1.76-.75,2.25-1.18-.67-1.19,2.55-1.5,3-1.39-.49-.47,1-.75,1.5-1.53.38-1.55.95-1.5,2.25-1.38-.49-.47,1-.75,1.5-1.38-.5-.47,1-.75,1.5-1.38-.5-.47,1-.75,1.5-2.49.36-1.27,4.14-3.75,4.5-.42,4.32-2.58,2.59-2.25,5.25-.93.89-2.88,1.39-2.25,3-1.44.38-1.62,1-1.5,2.25-.94.88-2.87,1.4-2.25,3-.94.88-2.87,1.4-2.25,3-.81,1-3.81,2.05-3,3.75-.57,1.19-5.61,3.49-4.5,5.25L352.06,498c-1.53-.09-6.29,9.21-8.26,7.5-1.29.24-2.56,5-4.49,3.75-.69,1-2.1,3.58-3.75,3-1.85,3.71-2.66.79-4.5,4.5-1.42-.63-1.77.65-2.25,1.5-.63.16-2.69.6-2.25,1.5-1.41-.64-1.78.65-2.25,1.5l-2.25.75v.75l-3,.75-.75,1.5c-.71.06-1.81-.28-1.5.75-2.45-.33-.56,1.08-3,.75v.75h-1.5c-.21,1.5-2.49,2.08-3.75,2.25.43,1.54-1.95,0-1.5,1.5-.43.12-5.33,1.21-4.5,2.25h-2.25c.66,1.65-3.67.59-3,2.25h-2.25v.75c-.71,0-1.81-.24-1.5.75h-2.25c.44,1.54-1.95,0-1.5,1.5-16.67,4.36-39.39,11.63-54.75,10.5-6.51,1.67-19.85.62-26.25,0,0-1.17-14.9-.12-13.5-2.25,0-1.08-9.54.56-8.25-1.5-.24-.62-4.73,1-3.75-.75,0-1.08-9.56-.32-8.25-2.25h-2.25v-.75c0-1-8.8-.37-7.5-2.25h-1.5v-.75l-4.5-.75c.52-1.4-1-.45-1.5-.75.63-1.43-1.78-.47-2.25-.75.52-1.39-1-.45-1.5-.75.63-1.43-1.79-.47-2.25-.75.74-1-4.09-2-4.5-2.25.54-1.39-1-.46-1.5-.75.54-1.39-1-.46-1.5-.75.47-1.61-2,.1-1.5-1.5h-1.5c.55-1.38-1-.46-1.5-.75.48-1.61-2,.1-1.5-1.5h-1.5c.56-1.38-1-.47-1.5-.75.56-1.38-1.05-.47-1.5-.75-.35-2.49-4.15-1.27-4.5-3.75-1.55-.39-4-1-4.5-3h-1.5v-.75l-2.25-.75c-.37-1.22-1.06-1.73-2.25-1.5-.06-1.49-2-1.9-3-2.25-.92-.87-1.4-2.89-3-2.25-1.08-.72-2-3.85-3.76-3-1.28-.43-3.44-5.69-5.25-4.5l-8.24-9c-.65-.69-11-9.2-9.75-10.5-.74-.84-4.62-2.8-3.75-4.5l-1.5-.75c.53-.95-1.12-1.13-1.5-1.5.76-1.57-1.43-2.31-2.25-3-.5-1.13-.77-2.84-2.25-3,.72-1.41-.72-1.77-1.5-2.25.72-1.41-.72-1.77-1.5-2.25.72-1.4-.72-1.78-1.5-2.25l-.75-2.25h-.75l-.75-3c-2.44-.38-1.31-4.12-3.75-4.5-.22-.37-1.13-5.39-2.25-4.5v-1.5h-.75v-1.5h-.75c-.22-.36-1.13-5.39-2.25-4.5V441c-1.66.66-.6-3.66-2.25-3v-2.25h-.75v-1.5h-.75c-.17-.36-.23-5.43-1.5-4.5V427.5h-.75v-2.25h-.75V423h-.75v-2.25h-.75c-.12-.4.58-3.82-.75-3V415.5h-.75c-.11-.4.58-3.82-.75-3-.18-.35.69-4.67-.75-3.75-.18-.35.69-4.67-.75-3.75-.18-.35.69-4.67-.75-3.75.12-3.59-1.09-8.18-.75-12-1.59-6.51-2.18-22.79-1.51-31.5,1.3,1.3,1.33-15.62,1.51-15.75,1.42.87.51-4.12.75-4.5,1.42.87.51-4.12.75-4.5,11.2-53.63,47.06-102.2,101.25-129h2.25v-.75h1.5v-.75c.42-.22,3.77-.36,3-1.5h2.25v-.75h1.5c-.48-1.12,1.66-.69,2.25-.75v-.75h1.5c-.9-1.4,4.15-1.11,4.5-1.5,19.26-8.34,58.77-13.4,84-8.25.26.8,6.29-1.19,5.25.75.28.74,5.49-1.13,4.5.75.43.5,2.93-.78,2.25.75.31.68,4.67-1,3.75.75.18.88,7.89-.4,6.75,1.5.21.82,6.31-.28,5.25,1.5.4.5,2.95-.77,2.25.75.39.49,2.95-.77,2.25.75.39.49,3-.77,2.25.75l4.5.75c-.45,1.46,1,.41,1.5.75-.82,1.84,5.31.41,4.5,2.25.24.89,3.85-.1,3,1.5.36.48,3-.76,2.25.75.11,1,5.53.58,4.5,2.25.53.22,1.87-.54,1.5.75.52.23,1.87-.54,1.5.75.51.24,1.88-.55,1.5.75.51.25,1.88-.56,1.5.75,2.47-.3.52,1.06,3,.75,0,1.75,4.05,2.55,5.25,3-.58,1.13,1.78,1.14,2.25,1.5l.75,1.5c.16.84,3.91-.07,3,1.5,1.24.23,2.65.81,3,2.25,1.34-.36,2.46,1.13,3,2.25,1.34-.37,2.47,1.14,3,2.25,1.34-.37,2.47,1.14,3,2.25h1.5c.4.51.6,1.9,1.5,1.5.41,1.23,1,1.74,2.25,1.5,1.26.54,2.66,4.83,4.5,3.75l12,12.75c.83.94,5.38,3.5,4.5,5.25,1.07.81,4.35,2.82,3.75,4.5,1.2.57,3.44,2.16,3,3.75,1.12.56,2.64,1.41,2.25,3,3.62,1.72,1,2.75,3.75,3.75l.75,2.25h.75c-.64,1.48.65,1.72,1.5,2.25l.75,2.25h.75l1.5,4.5c1.84,0,2.48,4.09,3,5.25,1.49.23,2.08,2.47,2.25,3.75,1.71-.78,1.29,5.28,3,4.5v2.25h.75c.12.69-.33,1.83.75,1.5l.75,3c1.15-.47.67,1.66.75,2.25,1.65-.66.59,3.66,2.25,3,.21.4.19,5.41,1.5,4.5.09.7-.31,1.82.75,1.5v2.25h.75v2.25c1.14-.49.67,1.67.75,2.25,1.32-.67.56,2.52.75,3,1.14-.49.67,1.68.75,2.25,1.32-.67.56,2.52.75,3,1.86-.68-.37,3.68,1.5,3C405.43,340.05,408.38,357.91,407.56,374.25Z"/><path class="cls-2" d="M371.56,354v-6h-.75v-5.25h-.75V339h-.75v-3.75h-.75l-.75-6h-.75v-3h-.75V324h-.75v-2.25h-.75V319.5h-.75l-.75-4.5h-.75v-1.5h-.75v-2.25h-.75l-1.5-4.5h-.75v-1.5h-.75v-1.5h-.75v-1.5h-.75v-1.5h-.75v-1.5h-.75v-1.5h-.75v-1.5l-1.5-.75-.75-3h-.75l-.75-2.25-1.5-.75V288h-.75l-.75-2.25-1.5-.75v-1.5l-1.5-.75-.75-2.25-3-2.25v-1.5l-4.5-3.75v-1.5l-4.5-3.75-6.75-7.5h-1.5l-4.5-5.25h-1.5l-2.25-3h-1.5l-1.5-2.25h-1.5l-1.5-2.25h-1.5l-.75-1.5h-1.5l-.75-1.5-2.25-.75V243l-3-.75c-20.88-13.24-47-20.74-81.75-20.25-2.28,2-12,.43-15.75,1.5-3.55,1-8.59,1.88-12,3h-3l-18,6v.75h-1.5V234h-2.25v.75l-4.5,1.5V237h-1.5v.75h-1.5v.75l-4.5,1.5-.75,1.5-3,.75-.75,1.5h-1.5v.75h-1.5l-1.5,2.25h-1.5v.75l-2.25.75-.75,1.5h-1.5l-.75,1.5h-.75l-.75,1.5h-1.5l-2.25,3h-1.5l-4.5,5.25h-1.5l-5.25,6-3,2.25v1.5l-5.25,4.5v1.5l-1.5.75v.75l-2.25,1.5v1.5l-2.25,1.5-.75,2.25-1.5.75v1.5l-1.5.75-.75,2.25h-.75l-.75,3-1.5.75-.75,3-1.5.75v1.5h-.75v1.5h-.75v1.5h-.75v1.5h-.75v1.5h-.75v1.5h-.75l-1.5,4.5h-.75v2.25h-.75V315h-.75l-.75,4.5h-.75v2.25h-.75V324h-.75v2.25h-.75v3h-.75l-.75,6h-.75l-.75,7.5h-.75l-.75,13.5c-.82,2.91-1.83,20.11-.75,24h.75v7.5h.75V393h.75v4.5h.75v3.75h.75v3h.75l.75,6h.75v2.25h.75v2.25h.75V417h.75l.75,4.5h.75V423h.75v2.25h.75l1.5,4.5h.75v1.5h.75v1.5h.75v1.5h.75v1.5h.75v1.5h.75v1.5h.75v1.5h.75l.75,2.25,1.5.75.75,3h.75l.75,2.25,1.5.75v1.5l2.25,1.5v1.5l2.25,1.5v1.5l2.25,1.5v1.5l5.25,4.5v1.5l4.5,3.75,7.5,8.25h1.5l3.75,4.5h1.5l2.25,3h1.5l1.5,2.25h1.5l.75,1.5h1.5l1.5,2.25h1.5l.75,1.5,3,.75.75,1.5,4.5,1.5.75,1.5,3,.75v.75h1.5v.75l4.5,1.5v.75h2.25v.75h1.5V504h2.25v.75h1.5v.75l4.5.75V507h2.25v.75h2.25v.75h2.25v.75h3V510h3v.75h3v.75h3.75v.75h3.75V513l12.75.75v.75h25.5v-.75h7.5V513h5.25v-.75h4.5v-.75l6.75-.75V510h3v-.75l5.25-.75v-.75h2.25V507l4.5-.75v-.75h1.5v-.75h2.25V504h1.5v-.75l3.75-.75v-.75l4.5-1.5v-.75h1.5v-.75h1.5V498l4.5-1.5.75-1.5,3-.75.75-1.5h1.5l.75-1.5h1.5v-.75l2.25-.75.75-1.5h1.5l1.5-2.25h1.5l2.25-3h1.5l2.25-3h1.5l8.25-9,7.5-6.75v-1.5l4.5-3.75v-1.5l2.25-1.5.75-2.25,1.5-.75v-1.5l1.5-.75v-1.5l2.25-1.5.75-3,1.5-.75.75-2.25h.75v-1.5h.75v-1.5h.75v-1.5h.75v-1.5h.75v-1.5h.75v-1.5h.75v-1.5h.75v-1.5h.75l1.5-4.5h.75V423h.75v-1.5h.75l.75-4.5a118.89,118.89,0,0,0,8.25-43.5V354Zm-45,48.75-.75,4.5C318.55,423.9,307.46,440,293.56,450l-3,3.75h-1.5l-.75,1.5h-1.5l-1.5,2.25h-1.5l-.75,1.5h-1.5l-.75,1.5-4.5,1.5-.75,1.5h-2.25l-.75,1.5h-1.5v.75l-22.5,7.5h-4.5V474h-5.25v.75H224.56c-16.69,0-27.6-2.52-39-7.5h-2.25v-.75l-4.5-1.5v-.75h-1.5v-.75h-1.5v-.75l-4.5-1.5v-.75l-2.25-.75-.75-1.5h-1.5v-.75l-2.25-.75-.75-1.5h-1.5l-.75-1.5-2.25-.75-3.75-4.5h-1.5l-6.75-7.5-4.5-3.75v-1.5l-3-2.25V432l-2.25-1.5-.75-2.25-1.5-.75-.75-3-1.5-.75-.75-2.25h-.75l-1.5-4.5h-.75v-1.5h-.75V414h-.75l-1.5-4.5h-.75v-2.25h-.75v-1.5h-.75V403.5h-.75v-2.25h-.75v-3h-.75v-3h-.75v-3h-.75v-4.5h-.75v-4.5h-.75V373.5h-.75V362.25h.75l.75-13.5h.75v-4.5h.75l.75-6h.75V336h.75v-2.25h.75V331.5h.75l.75-4.5h.75l1.5-4.5h.75V321h.75l1.5-4.5,1.5-.75.75-3h.75l.75-2.25,1.5-.75v-1.5l2.25-1.5v-1.5l2.25-1.5v-1.5l5.25-4.5v-1.5l3-2.25,6-6.75h1.5l2.25-3h1.5l1.5-2.25h1.5l1.5-2.25h1.5l.75-1.5,3-.75.75-1.5,3-.75.75-1.5,6.75-2.25v-.75l3-.75v-.75h2.25v-.75h1.5v-.75h2.25V267h2.25v-.75l5.25-.75v-.75l7.5-.75v-.75c3.17-1,10.68.25,12.75-1.5,8.14,0,16.85-.33,23.25,1.5h5.25l18.75,5.25v.75h1.5V270h2.25v.75l4.5,1.5V273h1.5v.75l3,.75.75,1.5,3,.75.75,1.5,3,.75.75,1.5,2.25.75,1.5,2.25h1.5l3,3.75h1.5l3,3.75,7.5,6.75v1.5l3.75,3,.75,2.25,1.5.75v1.5l2.25,1.5v1.5l1.5.75.75,2.25h.75l1.5,4.5,1.5.75,2.25,6.75h.75l.75,3h.75V330C333.75,349.8,334.89,381.52,326.56,402.75Z"/></g></g></svg>