<svg xmlns="http://www.w3.org/2000/svg" viewBox="0 0 196.15 112.46"><g id="Capa_2" data-name="Capa 2"><g id="Capa_2-2" data-name="Capa 2"><path d="M99.1,112.46s34.22-54.38,45.71-63.32c0,0-7.49,49.71,25,48.68,44.75-1.4,18.89-53.53,18.89-53.53s6.17,38.34-18.64,38.56C140.72,83.1,171.36.12,171.36.12s-28.6,24-46.47,50.56S99.1,96.63,99.1,96.63,53.19,15.91,22.05,0c0,0,15.22,49.2,17.19,60.8,3.18,18.73,1.91,27.41-14.43,23.07C1.6,77.7,9.49,45.06,9.49,45.06s-26,37.27,8.17,51.32C38.28,104.84,58,91.53,53.4,68.29c-4.85-24.51-4.08-21.44-4.08-21.44S80.47,78,99.1,112.46Z"/></g></g></svg>