<?xml version="1.0" encoding="UTF-8" standalone="no"?>
<svg
   width="32"
   height="32"
   version="1.1"
   id="svg16"
   sodipodi:docname="discord.svg"
   inkscape:version="1.1.2 (0a00cf5339, 2022-02-04)"
   xmlns:inkscape="http://www.inkscape.org/namespaces/inkscape"
   xmlns:sodipodi="http://sodipodi.sourceforge.net/DTD/sodipodi-0.dtd"
   xmlns="http://www.w3.org/2000/svg"
   xmlns:svg="http://www.w3.org/2000/svg">
  <defs
     id="defs20" />
  <sodipodi:namedview
     id="namedview18"
     pagecolor="#505050"
     bordercolor="#eeeeee"
     borderopacity="1"
     inkscape:pageshadow="0"
     inkscape:pageopacity="0"
     inkscape:pagecheckerboard="0"
     showgrid="false"
     inkscape:zoom="25.96875"
     inkscape:cx="15.65343"
     inkscape:cy="15.287605"
     inkscape:window-width="2490"
     inkscape:window-height="950"
     inkscape:window-x="1934"
     inkscape:window-y="62"
     inkscape:window-maximized="0"
     inkscape:current-layer="svg16" />
  <rect
     style="fill:#7289da"
     width="26"
     height="26"
     x="3"
     y="3"
     rx="3"
     ry="3"
     id="rect2" />
  <path
     style="opacity:0"
     d="m 3,25 v 1 c 0,1.662 1.338,3 3,3 h 20 l 3,3 V 31 L 26,28 H 6 C 4.338,28 3,26.662 3,25 Z"
     id="path4" />
  <path
     style="opacity:0.2;fill:#ffffff"
     d="M 6,3 C 4.338,3 3,4.338 3,6 V 7 C 3,5.338 4.338,4 6,4 h 20 c 1.662,0 3,1.338 3,3 V 6 C 29,4.338 27.662,3 26,3 Z"
     id="path8" />
  <path
     style="opacity:0.2"
     d="m 14.175781,10.000001 c 0,0 -1.980445,-0.043041 -4.078124,1.498046 -2.0976783,1.541083 -3.0976572,4.730918 -3.0976572,9.326172 0,0 2.223992,2.074982 5.4433602,2.175781 0,0 0.539546,-0.634246 0.976562,-1.181641 C 11.56994,21.270965 10.869141,19.632812 10.869141,19.632812 12.573666,20.585677 13.732467,20.983424 15.5,21 c 1.767533,-0.01658 3.926335,-0.414323 5.630859,-1.367188 0,0 -0.700799,1.638153 -2.550781,2.185547 C 19.017094,22.365754 19.556641,23 19.556641,23 22.776009,22.899201 25,20.824219 25,20.824219 25,16.228965 24.000022,13.03913 21.902344,11.498047 19.804665,9.9569604 17.824219,10.000001 17.824219,10.000001 l -0.146485,0.171875 c 2.622073,0.734692 3.816407,2.373046 3.816407,2.373046 0,0 -0.320389,-0.171846 -0.859375,-0.402343 C 18.999968,11.357811 17.000043,10.999969 15.5,11 c -1.500043,-3.1e-5 -2.499966,0.357811 -4.134765,1.142579 -0.538986,0.230497 -0.859375,0.402343 -0.859375,0.402343 0,0 1.194332,-1.638354 3.816406,-2.373046 z M 13.5,16 c 0.838151,0 1.5146,0.668208 1.5,1.5 C 15,18.331792 14.338151,19 13.5,19 12.676558,19 12,18.331792 12,17.5 12,16.668208 12.661868,16 13.5,16 Z m 5,0 C 19.338132,16 20,16.668208 20,17.5 20,18.331792 19.323442,19 18.5,19 17.661849,19 17,18.331792 17,17.5 16.9854,16.668208 17.661849,16 18.5,16 Z"
     id="path12" />
  <path
     style="fill:#ffffff"
     d="m 14.175781,9.0000005 c 0,0 -1.980445,-0.04304 -4.078124,1.4980465 -2.0976783,1.541083 -3.0976572,4.730918 -3.0976572,9.326172 0,0 2.223992,2.074982 5.4433602,2.175781 0,0 0.539546,-0.634246 0.976562,-1.181641 C 11.56994,20.270965 10.869141,18.632812 10.869141,18.632812 12.573666,19.585677 13.732467,19.983424 15.5,20 c 1.767533,-0.01658 3.926335,-0.414323 5.630859,-1.367188 0,0 -0.700799,1.638153 -2.550781,2.185547 C 19.017094,21.365754 19.556641,22 19.556641,22 22.776009,21.899201 25,19.824219 25,19.824219 25,15.228965 24.000022,12.03913 21.902344,10.498047 19.804665,8.9569604 17.824219,9.0000005 17.824219,9.0000005 l -0.146485,0.171875 c 2.622073,0.7346925 3.816407,2.3730465 3.816407,2.3730465 0,0 -0.320389,-0.171846 -0.859375,-0.402343 C 18.999968,10.357811 17.000043,9.999969 15.5,10 c -1.500043,-3.1e-5 -2.499966,0.357811 -4.134765,1.142579 -0.538986,0.230497 -0.859375,0.402343 -0.859375,0.402343 0,0 1.194332,-1.638354 3.816406,-2.3730465 z M 13.5,15 c 0.838151,0 1.5146,0.668208 1.5,1.5 C 15,17.331792 14.338151,18 13.5,18 12.676558,18 12,17.331792 12,16.5 12,15.668208 12.661868,15 13.5,15 Z m 5,0 C 19.338132,15 20,15.668208 20,16.5 20,17.331792 19.323442,18 18.5,18 17.661849,18 17,17.331792 17,16.5 16.9854,15.668208 17.661849,15 18.5,15 Z"
     id="path14" />
</svg>
