<?xml version="1.0" encoding="UTF-8" standalone="no"?>
<svg
   width="48"
   height="48"
   viewBox="0 0 48 48"
   version="1.1"
   id="svg6"
   sodipodi:docname="wifi-strength-1-lock.svg"
   inkscape:version="1.1.1 (3bf5ae0d25, 2021-09-20, custom)"
   xmlns:inkscape="http://www.inkscape.org/namespaces/inkscape"
   xmlns:sodipodi="http://sodipodi.sourceforge.net/DTD/sodipodi-0.dtd"
   xmlns="http://www.w3.org/2000/svg"
   xmlns:svg="http://www.w3.org/2000/svg"
   xmlns:rdf="http://www.w3.org/1999/02/22-rdf-syntax-ns#"
   xmlns:cc="http://creativecommons.org/ns#"
   xmlns:dc="http://purl.org/dc/elements/1.1/">
  <metadata
     id="metadata12">
    <rdf:RDF>
      <cc:Work
         rdf:about="">
        <dc:format>image/svg+xml</dc:format>
        <dc:type
           rdf:resource="http://purl.org/dc/dcmitype/StillImage" />
      </cc:Work>
    </rdf:RDF>
  </metadata>
  <defs
     id="defs10" />
  <sodipodi:namedview
     pagecolor="#ffffff"
     bordercolor="#666666"
     borderopacity="1"
     objecttolerance="10"
     gridtolerance="10"
     guidetolerance="10"
     inkscape:pageopacity="0"
     inkscape:pageshadow="2"
     inkscape:window-width="1217"
     inkscape:window-height="950"
     id="namedview8"
     showgrid="false"
     inkscape:pagecheckerboard="true"
     inkscape:zoom="4.9166667"
     inkscape:cx="22.372881"
     inkscape:cy="24"
     inkscape:window-x="3207"
     inkscape:window-y="62"
     inkscape:window-maximized="0"
     inkscape:current-layer="svg6" />
  <path
     d="M41 19c.7 0 1.4.1 2.1.2l4.2-5.2c-.9-.7-9.8-8-23.3-8S1.6 13.3.7 14L24 43l7-8.7V29c0-5.5 4.5-10 10-10z"
     id="path2"
     opacity=".3"
     style="fill:#d4be98;fill-opacity:0.69803923;opacity:1" />
  <path
     d="M46 32v-3c0-2.8-2.2-5-5-5s-5 2.2-5 5v3c-1.1 0-2 .9-2 2v8c0 1.1.9 2 2 2h10c1.1 0 2-.9 2-2v-8c0-1.1-.9-2-2-2zm-2 0h-6v-3c0-1.7 1.3-3 3-3s3 1.3 3 3v3zm-30.7-2.3l9 11.2L24 43l7-8.8V29c0-.5 0-1 .1-1.4-1.8-.8-4.2-1.6-7.1-1.6-6.1 0-10.1 3.3-10.7 3.7z"
     id="path4"
     style="fill:#d4be98;fill-opacity:0.69803923" />
</svg>
