<?xml version="1.0" encoding="utf-8"?>
<!-- Generator: Adobe Illustrator 26.0.1, SVG Export Plug-In . SVG Version: 6.00 Build 0)  -->
<svg version="1.1"
	 id="svg8" xmlns:cc="http://creativecommons.org/ns#" xmlns:dc="http://purl.org/dc/elements/1.1/" xmlns:inkscape="http://www.inkscape.org/namespaces/inkscape" xmlns:rdf="http://www.w3.org/1999/02/22-rdf-syntax-ns#" xmlns:sodipodi="http://sodipodi.sourceforge.net/DTD/sodipodi-0.dtd" xmlns:svg="http://www.w3.org/2000/svg"
	 xmlns="http://www.w3.org/2000/svg" xmlns:xlink="http://www.w3.org/1999/xlink" x="0px" y="0px" viewBox="0 0 240 240"
	 style="enable-background:new 0 0 240 240;" xml:space="preserve">
<style type="text/css">
	.st0{fill:#E78A4E;}
</style>
<sodipodi:namedview  bordercolor="#666666" borderopacity="1.0" id="base" inkscape:current-layer="layer1" inkscape:cx="201.37169" inkscape:cy="118.28466" inkscape:document-rotation="0" inkscape:document-units="mm" inkscape:pagecheckerboard="true" inkscape:pageopacity="0.0" inkscape:pageshadow="2" inkscape:window-height="740" inkscape:window-maximized="0" inkscape:window-width="1287" inkscape:window-x="45" inkscape:window-y="28" inkscape:zoom="1.0391556" pagecolor="#ffffff" showgrid="false" units="px">
	</sodipodi:namedview>
<g id="layer1" inkscape:groupmode="layer" inkscape:label="Layer 1">
	<g id="g2168">
		<path id="path2170" class="st0" d="M103.9,69.9h32.2c18.8,0,34,15.2,34,34v32.2c0,18.8-15.2,34-34,34h-32.2c-18.8,0-34-15.2-34-34
			v-32.2C69.9,85.1,85.1,69.9,103.9,69.9z"/>
		<path id="path2172" class="st0" d="M54,20c-18.8,0-34,15.2-34,34v15.9V186c0,18.8,15.2,34,34,34h132c18.8,0,34-15.2,34-34V54
			c0-18.8-15.2-34-34-34H54z M119.8,119.8h0.3v0.3h-0.3V119.8z"/>
	</g>
</g>
</svg>
