<?xml version="1.0" encoding="UTF-8" standalone="no"?>
<!-- Created with Inkscape (http://www.inkscape.org/) -->

<svg
   version="1.1"
   id="svg845"
   xml:space="preserve"
   width="320"
   height="320"
   viewBox="0 0 320 320"
   sodipodi:docname="dwindle.ai.svg"
   inkscape:version="1.1.2 (0a00cf5339, 2022-02-04)"
   xmlns:inkscape="http://www.inkscape.org/namespaces/inkscape"
   xmlns:sodipodi="http://sodipodi.sourceforge.net/DTD/sodipodi-0.dtd"
   xmlns="http://www.w3.org/2000/svg"
   xmlns:svg="http://www.w3.org/2000/svg"><defs
     id="defs849"><clipPath
       clipPathUnits="userSpaceOnUse"
       id="clipPath859"><path
         d="M 0,240 H 240 V 0 H 0 Z"
         id="path857" /></clipPath></defs><sodipodi:namedview
     id="namedview847"
     pagecolor="#505050"
     bordercolor="#eeeeee"
     borderopacity="1"
     inkscape:pageshadow="0"
     inkscape:pageopacity="0"
     inkscape:pagecheckerboard="0"
     showgrid="false"
     inkscape:zoom="2.30625"
     inkscape:cx="159.7832"
     inkscape:cy="160"
     inkscape:window-width="2490"
     inkscape:window-height="950"
     inkscape:window-x="1934"
     inkscape:window-y="62"
     inkscape:window-maximized="0"
     inkscape:current-layer="g851" /><g
     id="g851"
     inkscape:groupmode="layer"
     inkscape:label="dwindle"
     transform="matrix(1.3333333,0,0,-1.3333333,0,320)"><g
       id="g853"><g
         id="g855"
         clip-path="url(#clipPath859)"><g
           id="g861"
           transform="translate(112.3689,30.96)"><path
             d="m 0,0 h -72.593 c -4.869,0 -8.816,3.947 -8.816,8.816 v 160.448 c 0,4.869 3.947,8.816 8.816,8.816 H 0 c 4.869,0 8.816,-3.947 8.816,-8.816 V 8.816 C 8.816,3.947 4.869,0 0,0"
             style="fill:#ddbf98;fill-opacity:1;fill-rule:nonzero;stroke:none"
             id="path863" /></g><g
           id="g865"
           transform="translate(200.1511,106.6667)"><path
             d="m 0,0 h -60.299 c -4.909,0 -8.889,3.98 -8.889,8.889 v 84.595 c 0,4.91 3.98,8.889 8.889,8.889 H 0 c 4.909,0 8.889,-3.979 8.889,-8.889 V 8.889 C 8.889,3.98 4.909,0 0,0"
             style="fill:#ddbf98;fill-opacity:1;fill-rule:nonzero;stroke:none"
             id="path867" /></g><g
           id="g869"
           transform="translate(162.8148,30.96)"><path
             d="m 0,0 h -23.407 c -4.664,0 -8.445,3.781 -8.445,8.444 v 48.744 c 0,4.664 3.781,8.445 8.445,8.445 H 0 c 4.664,0 8.444,-3.781 8.444,-8.445 V 8.444 C 8.444,3.781 4.664,0 0,0"
             style="fill:#ddbf98;fill-opacity:1;fill-rule:nonzero;stroke:none"
             id="path871" /></g><g
           id="g873"
           transform="translate(200.3719,56.8889)"><path
             d="m 0,0 h -10.37 c -4.788,0 -8.669,3.881 -8.669,8.668 v 22.368 c 0,4.787 3.881,8.668 8.669,8.668 H 0 c 4.787,0 8.668,-3.881 8.668,-8.668 V 8.668 C 8.668,3.881 4.787,0 0,0"
             style="fill:#ddbf98;fill-opacity:1;fill-rule:nonzero;stroke:none"
             id="path875" /></g><g
           id="g877"
           transform="translate(201.7807,30.96)"><path
             d="m 0,0 h -13.188 c -4.009,0 -7.259,3.25 -7.259,7.259 v 0.744 c 0,4.009 3.25,7.259 7.259,7.259 H 0 c 4.009,0 7.259,-3.25 7.259,-7.259 V 7.259 C 7.259,3.25 4.009,0 0,0"
             style="fill:#ddbf98;fill-opacity:1;fill-rule:nonzero;stroke:none"
             id="path879" /></g></g></g></g></svg>
