<?xml version="1.0" encoding="UTF-8" standalone="no"?>
<!-- Created with Inkscape (http://www.inkscape.org/) -->

<svg
   version="1.1"
   id="svg1130"
   xml:space="preserve"
   width="320"
   height="320"
   viewBox="0 0 320 320"
   sodipodi:docname="floating.svg"
   inkscape:version="1.1.2 (0a00cf5339, 2022-02-04)"
   xmlns:inkscape="http://www.inkscape.org/namespaces/inkscape"
   xmlns:sodipodi="http://sodipodi.sourceforge.net/DTD/sodipodi-0.dtd"
   xmlns="http://www.w3.org/2000/svg"
   xmlns:svg="http://www.w3.org/2000/svg"><defs
     id="defs1134"><clipPath
       clipPathUnits="userSpaceOnUse"
       id="clipPath1144"><path
         d="M 0,240 H 240 V 0 H 0 Z"
         id="path1142" /></clipPath></defs><sodipodi:namedview
     id="namedview1132"
     pagecolor="#505050"
     bordercolor="#eeeeee"
     borderopacity="1"
     inkscape:pageshadow="0"
     inkscape:pageopacity="0"
     inkscape:pagecheckerboard="0"
     showgrid="false"
     inkscape:zoom="2.30625"
     inkscape:cx="159.7832"
     inkscape:cy="160"
     inkscape:window-width="2490"
     inkscape:window-height="950"
     inkscape:window-x="1934"
     inkscape:window-y="62"
     inkscape:window-maximized="0"
     inkscape:current-layer="g1136" /><g
     id="g1136"
     inkscape:groupmode="layer"
     inkscape:label="floating"
     transform="matrix(1.3333333,0,0,-1.3333333,0,320)"><g
       id="g1138"><g
         id="g1140"
         clip-path="url(#clipPath1144)"><g
           id="g1146"
           transform="translate(207.41,112.52)"><path
             d="m 0,0 v -72.44 c 0,-4.14 -3.35,-7.49 -7.49,-7.49 h -110.07 c -4.13,0 -7.48,3.35 -7.48,7.49 v 43.18 h 92.67 c 4.13,0 7.48,3.35 7.48,7.48 V 7.48 h 17.4 C -3.35,7.48 0,4.13 0,0"
             style="fill:#ddbf98;fill-opacity:1;fill-rule:nonzero;stroke:none"
             id="path1148" /></g><g
           id="g1150"
           transform="translate(163.7763,93.6296)"><path
             d="m 0,0 h -125.333 c -4.133,0 -7.483,3.35 -7.483,7.483 v 100.444 c 0,4.133 3.35,7.483 7.483,7.483 L 0,115.41 c 4.133,0 7.483,-3.35 7.483,-7.483 V 7.483 C 7.483,3.35 4.133,0 0,0"
             style="fill:#ddbf98;fill-opacity:1;fill-rule:nonzero;stroke:none"
             id="path1152" /></g></g></g></g></svg>
