<?xml version="1.0" encoding="UTF-8" standalone="no"?>
<!-- Created with Inkscape (http://www.inkscape.org/) -->

<svg
   version="1.1"
   id="svg1847"
   xml:space="preserve"
   width="320"
   height="320"
   viewBox="0 0 320 320"
   sodipodi:docname="tile.svg"
   inkscape:version="1.1.2 (0a00cf5339, 2022-02-04)"
   xmlns:inkscape="http://www.inkscape.org/namespaces/inkscape"
   xmlns:sodipodi="http://sodipodi.sourceforge.net/DTD/sodipodi-0.dtd"
   xmlns="http://www.w3.org/2000/svg"
   xmlns:svg="http://www.w3.org/2000/svg"><defs
     id="defs1851"><clipPath
       clipPathUnits="userSpaceOnUse"
       id="clipPath1861"><path
         d="M 0,240 H 240 V 0 H 0 Z"
         id="path1859" /></clipPath></defs><sodipodi:namedview
     id="namedview1849"
     pagecolor="#505050"
     bordercolor="#eeeeee"
     borderopacity="1"
     inkscape:pageshadow="0"
     inkscape:pageopacity="0"
     inkscape:pagecheckerboard="0"
     showgrid="false"
     inkscape:zoom="2.30625"
     inkscape:cx="159.7832"
     inkscape:cy="160"
     inkscape:window-width="2490"
     inkscape:window-height="950"
     inkscape:window-x="1934"
     inkscape:window-y="62"
     inkscape:window-maximized="0"
     inkscape:current-layer="g1853" /><g
     id="g1853"
     inkscape:groupmode="layer"
     inkscape:label="tile"
     transform="matrix(1.3333333,0,0,-1.3333333,0,320)"><g
       id="g1855"><g
         id="g1857"
         clip-path="url(#clipPath1861)"><g
           id="g1863"
           transform="translate(72.8889,30.96)"><path
             d="m 0,0 h -30.519 c -6.218,0 -11.259,5.041 -11.259,11.259 v 155.707 c 0,6.218 5.041,11.259 11.259,11.259 H 0 c 6.218,0 11.259,-5.041 11.259,-11.259 V 11.259 C 11.259,5.041 6.218,0 0,0"
             style="fill:#ddbf98;fill-opacity:1;fill-rule:nonzero;stroke:none"
             id="path1865" /></g><g
           id="g1867"
           transform="translate(137.1852,155.2593)"><path
             d="m 0,0 h -34.37 c -5.4,0 -9.778,4.378 -9.778,9.778 v 34.37 c 0,5.4 4.378,9.778 9.778,9.778 H 0 c 5.4,0 9.778,-4.378 9.778,-9.778 V 9.778 C 9.778,4.378 5.4,0 0,0"
             style="fill:#ddbf98;fill-opacity:1;fill-rule:nonzero;stroke:none"
             id="path1869" /></g><g
           id="g1871"
           transform="translate(200,155.2593)"><path
             d="m 0,0 h -34.37 c -5.4,0 -9.778,4.378 -9.778,9.778 v 34.37 c 0,5.4 4.378,9.778 9.778,9.778 H 0 c 5.4,0 9.778,-4.378 9.778,-9.778 V 9.778 C 9.778,4.378 5.4,0 0,0"
             style="fill:#ddbf98;fill-opacity:1;fill-rule:nonzero;stroke:none"
             id="path1873" /></g><g
           id="g1875"
           transform="translate(137.1852,93.037)"><path
             d="m 0,0 h -34.37 c -5.4,0 -9.778,4.378 -9.778,9.778 v 34.37 c 0,5.4 4.378,9.778 9.778,9.778 H 0 c 5.4,0 9.778,-4.378 9.778,-9.778 V 9.778 C 9.778,4.378 5.4,0 0,0"
             style="fill:#ddbf98;fill-opacity:1;fill-rule:nonzero;stroke:none"
             id="path1877" /></g><g
           id="g1879"
           transform="translate(200,93.037)"><path
             d="m 0,0 h -34.37 c -5.4,0 -9.778,4.378 -9.778,9.778 v 34.37 c 0,5.4 4.378,9.778 9.778,9.778 H 0 c 5.4,0 9.778,-4.378 9.778,-9.778 V 9.778 C 9.778,4.378 5.4,0 0,0"
             style="fill:#ddbf98;fill-opacity:1;fill-rule:nonzero;stroke:none"
             id="path1881" /></g><g
           id="g1883"
           transform="translate(137.1852,30.96)"><path
             d="m 0,0 h -34.37 c -5.4,0 -9.778,4.378 -9.778,9.778 v 34.37 c 0,5.4 4.378,9.778 9.778,9.778 H 0 c 5.4,0 9.778,-4.378 9.778,-9.778 V 9.778 C 9.778,4.378 5.4,0 0,0"
             style="fill:#ddbf98;fill-opacity:1;fill-rule:nonzero;stroke:none"
             id="path1885" /></g><g
           id="g1887"
           transform="translate(200,30.96)"><path
             d="m 0,0 h -34.37 c -5.4,0 -9.778,4.378 -9.778,9.778 v 34.37 c 0,5.4 4.378,9.778 9.778,9.778 H 0 c 5.4,0 9.778,-4.378 9.778,-9.778 V 9.778 C 9.778,4.378 5.4,0 0,0"
             style="fill:#ddbf98;fill-opacity:1;fill-rule:nonzero;stroke:none"
             id="path1889" /></g></g></g></g></svg>
